<?xml version="1.0" encoding="UTF-8"?>
<svg width="400" height="300" viewBox="0 0 400 300" fill="none" xmlns="http://www.w3.org/2000/svg">
  <!-- Pozadí domu -->
  <rect x="100" y="100" width="200" height="150" fill="#E1EDFF" stroke="#0066CC" stroke-width="3"/>
  
  <!-- Střecha -->
  <polygon points="100,100 200,30 300,100" fill="#FF6B00" stroke="#E86000" stroke-width="3"/>
  
  <!-- Dveře -->
  <rect x="180" y="180" width="40" height="70" fill="#0066CC" stroke="#004C99" stroke-width="2"/>
  <circle cx="190" cy="215" r="3" fill="#FFCC00"/>
  
  <!-- Okno vlevo -->
  <rect x="130" y="130" width="40" height="40" fill="#FFFFFF" stroke="#0066CC" stroke-width="2"/>
  <line x1="130" y1="150" x2="170" y2="150" stroke="#0066CC" stroke-width="2"/>
  <line x1="150" y1="130" x2="150" y2="170" stroke="#0066CC" stroke-width="2"/>
  
  <!-- Okno vpravo -->
  <rect x="230" y="130" width="40" height="40" fill="#FFFFFF" stroke="#0066CC" stroke-width="2"/>
  <line x1="230" y1="150" x2="270" y2="150" stroke="#0066CC" stroke-width="2"/>
  <line x1="250" y1="130" x2="250" y2="170" stroke="#0066CC" stroke-width="2"/>
  
  <!-- Solární panely na střeše -->
  <rect x="130" y="60" width="25" height="30" fill="#2D3E50" stroke="#1A2530" stroke-width="1"/>
  <rect x="160" y="60" width="25" height="30" fill="#2D3E50" stroke="#1A2530" stroke-width="1"/>
  <rect x="190" y="60" width="25" height="30" fill="#2D3E50" stroke="#1A2530" stroke-width="1"/>
  <rect x="220" y="60" width="25" height="30" fill="#2D3E50" stroke="#1A2530" stroke-width="1"/>
  
  <!-- Ikona bankovek/peněz - symbolizující dotace -->
  <rect x="50" y="160" width="40" height="25" rx="2" fill="#67C240" stroke="#4D8C31" stroke-width="1.5"/>
  <circle cx="70" cy="172.5" r="8" fill="#FFFFFF" stroke="#4D8C31" stroke-width="1" opacity="0.8"/>
  <text x="70" y="176" font-family="Arial" font-size="10" text-anchor="middle" fill="#4D8C31">$</text>
  
  <!-- Ikona bankovek/peněz - druhá -->
  <rect x="40" y="172" width="40" height="25" rx="2" fill="#67C240" stroke="#4D8C31" stroke-width="1.5"/>
  <circle cx="60" cy="184.5" r="8" fill="#FFFFFF" stroke="#4D8C31" stroke-width="1" opacity="0.8"/>
  <text x="60" y="188" font-family="Arial" font-size="10" text-anchor="middle" fill="#4D8C31">$</text>
  
  <!-- Tepelné čerpadlo - zjednodušená ikona -->
  <rect x="320" y="180" width="30" height="40" fill="#AACEFF" stroke="#0066CC" stroke-width="2" rx="3"/>
  <circle cx="335" cy="190" r="8" fill="#FFFFFF" stroke="#0066CC" stroke-width="1.5"/>
  <circle cx="335" cy="210" r="8" fill="#FFFFFF" stroke="#0066CC" stroke-width="1.5"/>
  <path d="M335 182 L335 198" stroke="#0066CC" stroke-width="1.5"/>
  <path d="M335 202 L335 218" stroke="#0066CC" stroke-width="1.5"/>
  
  <!-- Slunce v rohu -->
  <circle cx="350" cy="50" r="20" fill="#FFCC00" stroke="#FF6B00" stroke-width="1"/>
  <path d="M350 20 L350 10" stroke="#FFCC00" stroke-width="2"/>
  <path d="M350 80 L350 90" stroke="#FFCC00" stroke-width="2"/>
  <path d="M320 50 L310 50" stroke="#FFCC00" stroke-width="2"/>
  <path d="M380 50 L390 50" stroke="#FFCC00" stroke-width="2"/>
  <path d="M330 30 L323 23" stroke="#FFCC00" stroke-width="2"/>
  <path d="M370 70 L377 77" stroke="#FFCC00" stroke-width="2"/>
  <path d="M330 70 L323 77" stroke="#FFCC00" stroke-width="2"/>
  <path d="M370 30 L377 23" stroke="#FFCC00" stroke-width="2"/>
</svg> 