<svg xmlns="http://www.w3.org/2000/svg" viewBox="0 0 100 100" width="100" height="100">
  <!-- Pozadí ikony -->
  <circle cx="50" cy="50" r="48" fill="#f5f9ff" stroke="#2196f3" stroke-width="2" />
  
  <!-- Hlava a tělo -->
  <circle cx="50" cy="38" r="15" fill="#2196f3" />
  <path d="M30 80 C 30 60, 70 60, 70 80" fill="#2196f3" />
  
  <!-- Přilba / helma energetického specialisty -->
  <path d="M36 30 C 36 25, 64 25, 64 30" stroke="#ffb700" stroke-width="3" fill="none" />
  <path d="M36 30 C 37 24, 63 24, 64 30" fill="#ffb700" />
  
  <!-- Brýle / ochranné brýle -->
  <rect x="40" y="35" width="20" height="6" rx="3" ry="3" fill="#ffffff" />
  
  <!-- Symbol energie / žárovka -->
  <circle cx="75" cy="25" r="12" fill="#ffb700" />
  <path d="M75 18 L75 22 M69 20 L81 30 M69 30 L81 20 M75 28 L75 32" stroke="#ffffff" stroke-width="2" />
  
  <!-- Dům / budova -->
  <rect x="20" y="50" width="15" height="15" fill="#ffffff" stroke="#2196f3" stroke-width="1" />
  <polygon points="15,50 27.5,40 40,50" fill="#ffffff" stroke="#2196f3" stroke-width="1" />
  <rect x="25" y="55" width="5" height="5" fill="#2196f3" />
  
  <!-- Certifikát / dokument -->
  <rect x="65" y="50" width="15" height="20" fill="#ffffff" stroke="#2196f3" stroke-width="1" />
  <line x1="68" y1="55" x2="77" y2="55" stroke="#2196f3" stroke-width="1" />
  <line x1="68" y1="60" x2="77" y2="60" stroke="#2196f3" stroke-width="1" />
  <line x1="68" y1="65" x2="77" y2="65" stroke="#2196f3" stroke-width="1" />
</svg>
