<?xml version="1.0" encoding="UTF-8"?>
<svg width="64" height="64" viewBox="0 0 64 64" fill="none" xmlns="http://www.w3.org/2000/svg">
  <!-- Baterie -->
  <rect x="12" y="16" width="40" height="32" fill="#FFFFFF" stroke="#0066CC" stroke-width="2" rx="2"/>
  <rect x="16" y="12" width="8" height="4" fill="#0066CC" stroke="#0066CC" stroke-width="2"/>
  <rect x="40" y="12" width="8" height="4" fill="#0066CC" stroke="#0066CC" stroke-width="2"/>
  
  <!-- Indikátor nabití -->
  <rect x="16" y="20" width="32" height="24" fill="#E1EDFF" stroke="none"/>
  <rect x="16" y="20" width="24" height="24" fill="#AACEFF" stroke="none"/>
  
  <!-- + a - póly -->
  <text x="22" y="36" font-family="Arial" font-size="16" font-weight="bold" fill="#0066CC">+</text>
  <text x="46" y="36" font-family="Arial" font-size="16" font-weight="bold" fill="#0066CC">-</text>
  
  <!-- Elektrická energie - blesk -->
  <polygon points="32,8 28,14 32,14 28,20" fill="#FF6B00" stroke="#FF6B00" stroke-width="1"/>
  
  <!-- Propojení s domem -->
  <path d="M32 48 L32 56" stroke="#0066CC" stroke-width="2"/>
  <rect x="24" y="56" width="16" height="4" fill="#E1EDFF" stroke="#0066CC" stroke-width="2"/>
  
  <!-- Fotovoltaický panel -->
  <rect x="4" y="4" width="12" height="8" fill="#2D3E50" stroke="#1A2530" stroke-width="1"/>
  <path d="M10 12 L10 16" stroke="#0066CC" stroke-width="2"/>
  <path d="M10 16 L16 16" stroke="#0066CC" stroke-width="2"/>
  
  <!-- Slunce -->
  <circle cx="4" cy="4" r="3" fill="#FFCC00" stroke="#FF6B00" stroke-width="1"/>
  <path d="M4 0 L4 1" stroke="#FFCC00" stroke-width="1"/>
  <path d="M4 7 L4 8" stroke="#FFCC00" stroke-width="1"/>
  <path d="M0 4 L1 4" stroke="#FFCC00" stroke-width="1"/>
  <path d="M7 4 L8 4" stroke="#FFCC00" stroke-width="1"/>
  
  <!-- Graf spotřeby -->
  <rect x="48" y="4" width="12" height="8" fill="#FFFFFF" stroke="#0066CC" stroke-width="1"/>
  <path d="M50 10 L52 6 L54 8 L56 4 L58 7" stroke="#FF6B00" stroke-width="1" fill="none"/>
  <path d="M48 16 L60 16" stroke="#0066CC" stroke-width="2"/>
  <path d="M54 16 L54 20" stroke="#0066CC" stroke-width="2"/>
</svg> 