<?xml version="1.0" encoding="UTF-8"?>
<svg width="64" height="64" viewBox="0 0 64 64" fill="none" xmlns="http://www.w3.org/2000/svg">
  <!-- Dům -->
  <rect x="24" y="24" width="32" height="24" fill="#E1EDFF" stroke="#0066CC" stroke-width="2"/>
  <polygon points="24,24 40,12 56,24" fill="#E1EDFF" stroke="#0066CC" stroke-width="2"/>
  
  <!-- Dešťový mrak -->
  <path d="M16 16 C12 16 8 20 8 24 C8 28 12 32 16 32 C16 28 20 24 24 24 C24 20 20 16 16 16" fill="#AACEFF" stroke="#0066CC" stroke-width="2"/>
  
  <!-- Déšť - kapky -->
  <path d="M12 32 L10 40" stroke="#AACEFF" stroke-width="2" stroke-linecap="round"/>
  <path d="M16 32 L14 40" stroke="#AACEFF" stroke-width="2" stroke-linecap="round"/>
  <path d="M20 32 L18 40" stroke="#AACEFF" stroke-width="2" stroke-linecap="round"/>
  
  <!-- Okap -->
  <path d="M24 24 L8 24" stroke="#0066CC" stroke-width="2"/>
  <path d="M8 24 L8 48" stroke="#0066CC" stroke-width="2"/>
  
  <!-- Nádrž na dešťovou vodu -->
  <rect x="4" y="48" width="16" height="12" fill="#AACEFF" stroke="#0066CC" stroke-width="2" rx="2"/>
  
  <!-- Vlnky v nádrži -->
  <path d="M6 52 C8 50 10 52 12 50 C14 48 16 50 18 48" stroke="#FFFFFF" stroke-width="1"/>
  <path d="M6 56 C8 54 10 56 12 54 C14 52 16 54 18 52" stroke="#FFFFFF" stroke-width="1"/>
  
  <!-- Zalévání zahrady -->
  <path d="M20 54 C24 54 28 50 32 50" stroke="#0066CC" stroke-width="2" fill="none"/>
  <path d="M32 50 C36 50 40 54 44 54" stroke="#0066CC" stroke-width="2" fill="none"/>
  
  <!-- Rostlina -->
  <path d="M44 54 L44 44" stroke="#67C240" stroke-width="2"/>
  <path d="M40 48 C44 44 48 48 44 44" stroke="#67C240" stroke-width="2" fill="none"/>
  <path d="M44 44 C40 40 48 40 48 44" stroke="#67C240" stroke-width="2" fill="none"/>
</svg> 